PathFileType	3	(X/Y/Z)	walking_2__view1_aligned.trc
DataRate	CameraRate	NumFrames	NumMarkers	Units	OrigDataRate	OrigDataStartFrame	OrigNumFrames
100.0	100.0	12	19	mm	100.0	2567	6300
Frame#	Time	pelvis			neck			head			hip_left			hip_right			knee_left			knee_right			ankle_left			ankle_right			heel_left			heel_right			toe_left			toe_right			shoulder_left			shoulder_right			elbow_left			elbow_right			wrist_left			wrist_right			
		X1	Y1	Z1	X2	Y2	Z2	X3	Y3	Z3	X4	Y4	Z4	X5	Y5	Z5	X6	Y6	Z6	X7	Y7	Z7	X8	Y8	Z8	X9	Y9	Z9	X10	Y10	Z10	X11	Y11	Z11	X12	Y12	Z12	X13	Y13	Z13	X14	Y14	Z14	X15	Y15	Z15	X16	Y16	Z16	X17	Y17	Z17	X18	Y18	Z18	X19	Y19	Z19	
2567	25.66000	12.453350	946.814609	151.846183	-45.213914	1493.355265	268.834255	-48.781211	1542.442320	424.355453	93.607541	947.965426	148.459649	-68.700839	945.663793	155.232722	133.217954	545.015770	315.601014	-99.499241	521.063708	254.411487	106.767713	222.810884	112.635663	-110.539592	106.378776	191.095827	99.365460	201.796759	65.874865	-111.671551	56.229957	156.774366	99.190986	83.578855	214.278885	-98.562297	50.350640	379.910965	136.633779	1482.532501	218.057960	-213.032905	1423.820438	238.226214	235.483147	1206.552556	157.801094	-259.309000	1130.514454	225.797886	301.282393	955.043786	221.986047	-255.733391	901.441276	332.044746
2568	25.67000	12.337153	946.876951	152.049478	-44.296673	1493.549562	267.889254	-47.005283	1542.547434	423.371994	93.436120	947.935824	148.723454	-68.761809	945.818079	155.375509	133.532413	546.801109	321.857251	-100.063355	520.213167	248.251468	108.749841	221.981979	126.827928	-111.065406	105.919372	180.373190	101.685214	200.070522	80.820987	-112.157578	55.901257	145.567957	100.549489	86.154945	230.655593	-99.232993	49.034251	369.403734	137.181003	1482.487522	215.652169	-212.419450	1424.452304	238.785884	234.364585	1206.482597	153.576013	-259.539731	1131.538136	228.638506	301.519111	954.072912	213.596262	-253.823088	904.631620	338.772292
2569	25.68000	12.220957	946.939293	152.252772	-43.379432	1493.743859	266.944252	-45.229354	1542.652548	422.388536	93.264699	947.906222	148.987258	-68.822779	945.972364	155.518296	133.846872	548.586448	328.113488	-100.627470	519.362627	242.091449	110.731969	221.153074	141.020193	-111.591220	105.459969	169.650553	104.004968	198.344286	95.767109	-112.643605	55.572557	134.361547	101.907992	88.731035	247.032301	-99.903689	47.717863	358.896502	137.728226	1482.442544	213.246379	-211.805995	1425.084169	239.345553	233.246023	1206.412638	149.350932	-259.770463	1132.561818	231.479125	301.755830	953.102038	205.206477	-251.912784	907.821965	345.499839
2570	25.69000	12.104760	947.001635	152.456067	-42.462191	1493.938156	265.999250	-43.453426	1542.757662	421.405078	93.093278	947.876620	149.251063	-68.883749	946.126650	155.661083	134.161331	550.371786	334.369726	-101.191584	518.512086	235.931430	112.714097	220.324169	155.212458	-112.117034	105.000565	158.927915	106.324722	196.618049	110.713232	-113.129632	55.243857	123.155138	103.266494	91.307125	263.409009	-100.574385	46.401474	348.389270	138.275449	1482.397566	210.840588	-211.192541	1425.716035	239.905222	232.127461	1206.342678	145.125851	-260.001194	1133.585499	234.319744	301.992549	952.131164	196.816691	-250.002480	911.012309	352.227386
2571	25.70000	11.988564	947.063977	152.659361	-41.544950	1494.132453	265.054249	-41.677498	1542.862776	420.421620	92.921857	947.847019	149.514867	-68.944719	946.280936	155.803869	134.475790	552.157125	340.625963	-101.755698	517.661546	229.771412	114.696225	219.495264	169.404723	-112.642848	104.541161	148.205278	108.644476	194.891812	125.659354	-113.615659	54.915157	111.948728	104.624997	93.883215	279.785717	-101.245081	45.085086	337.882039	138.822672	1482.352587	208.434797	-210.579086	1426.347900	240.464891	231.008899	1206.272719	140.900771	-260.231925	1134.609181	237.160363	302.229268	951.160289	188.426906	-248.092177	914.202654	358.954932
2572	25.71000	11.872367	947.126319	152.862656	-40.627709	1494.326751	264.109247	-39.901569	1542.967890	419.438161	92.750436	947.817417	149.778672	-69.005689	946.435221	155.946656	134.790248	553.942464	346.882200	-102.319812	516.811006	223.611393	116.678353	218.666359	183.596988	-113.168662	104.081758	137.482641	110.964230	193.165576	140.605476	-114.101686	54.586457	100.742319	105.983500	96.459305	296.162425	-101.915778	43.768697	327.374807	139.369895	1482.307609	206.029007	-209.965631	1426.979766	241.024560	229.890337	1206.202759	136.675690	-260.462656	1135.632862	240.000983	302.465987	950.189415	180.037121	-246.181873	917.392998	365.682479
2573	25.72000	11.756171	947.188661	153.065950	-39.710468	1494.521048	263.164246	-38.125641	1543.073004	418.454703	92.579015	947.787815	150.042476	-69.066659	946.589507	156.089443	135.104707	555.727802	353.138437	-102.883926	515.960465	217.451374	118.660481	217.837454	197.789252	-113.694476	103.622354	126.760004	113.283984	191.439339	155.551599	-114.587713	54.257757	89.535909	107.342002	99.035395	312.539133	-102.586474	42.452309	316.867576	139.917119	1482.262631	203.623216	-209.352177	1427.611631	241.584230	228.771775	1206.132800	132.450609	-260.693387	1136.656544	242.841602	302.702705	949.218541	171.647336	-244.271569	920.583343	372.410026
2574	25.73000	11.639974	947.251003	153.269245	-38.793226	1494.715345	262.219244	-36.349713	1543.178118	417.471245	92.407594	947.758213	150.306281	-69.127629	946.743793	156.232230	135.419166	557.513141	359.394674	-103.448041	515.109925	211.291355	120.642609	217.008549	211.981517	-114.220290	103.162951	116.037366	115.603739	189.713103	170.497721	-115.073741	53.929057	78.329500	108.700505	101.611485	328.915841	-103.257170	41.135921	306.360344	140.464342	1482.217652	201.217426	-208.738722	1428.243496	242.143899	227.653213	1206.062840	128.225528	-260.924118	1137.680226	245.682221	302.939424	948.247667	163.257551	-242.361265	923.773687	379.137572
2575	25.74000	11.523778	947.313345	153.472540	-37.875985	1494.909642	261.274242	-34.573784	1543.283232	416.487787	92.236173	947.728611	150.570085	-69.188599	946.898078	156.375017	135.733625	559.298480	365.650911	-104.012155	514.259385	205.131337	122.624737	216.179644	226.173782	-114.746104	102.703547	105.314729	117.923493	187.986866	185.443843	-115.559768	53.600357	67.123091	110.059008	104.187576	345.292549	-103.927866	39.819532	295.853112	141.011565	1482.172674	198.811635	-208.125267	1428.875362	242.703568	226.534651	1205.992881	124.000448	-261.154849	1138.703907	248.522841	303.176143	947.276793	154.867765	-240.450962	926.964031	385.865119
2576	25.75000	12.436729	946.642720	153.951006	-36.283341	1494.402104	260.694149	-32.400114	1542.725439	415.960706	93.050103	947.146607	151.381889	-68.176591	946.138840	156.520114	135.665853	559.775562	368.944766	-104.132163	512.662189	200.831733	124.430411	212.926919	238.366301	-115.686945	103.771696	96.694258	120.240442	183.426658	198.483943	-116.350786	55.326082	58.184143	110.652860	105.592086	361.004565	-106.027163	39.588194	285.332962	142.460059	1481.163115	197.822731	-206.833789	1428.823592	242.690375	226.034672	1205.070121	121.558843	-260.131176	1138.996939	250.067091	300.888449	946.353313	150.121559	-237.358826	930.011436	391.713009
2577	25.76000	13.349679	945.972096	154.429472	-34.690697	1493.894567	260.114055	-30.226443	1542.167647	415.433625	93.864032	946.564603	152.193693	-67.164583	945.379601	156.665212	135.598081	560.252644	372.238620	-104.252171	511.064994	196.532129	126.236086	209.674194	250.558819	-116.627786	104.839844	88.073788	122.557391	178.866451	211.524043	-117.141804	57.051806	49.245195	111.246713	106.996597	376.716580	-108.126459	39.356856	274.812813	143.908553	1480.153557	196.833828	-205.542310	1428.771823	242.677181	225.534692	1204.147360	119.117237	-259.107503	1139.289971	251.611341	298.600754	945.429834	145.375353	-234.266691	933.058841	397.560899
2578	25.77000	14.262630	945.301472	154.907938	-33.098053	1493.387029	259.533961	-28.052773	1541.609855	414.906544	94.677962	945.982599	153.005497	-66.152576	944.620362	156.810310	135.530309	560.729726	375.532475	-104.372179	509.467798	192.232525	128.041760	206.421468	262.751337	-117.568628	105.907992	79.453317	124.874339	174.306243	224.564143	-117.932821	58.777531	40.306247	111.840565	108.401107	392.428595	-110.225756	39.125518	264.292663	145.357048	1479.143998	195.844924	-204.250831	1428.720053	242.663988	225.034712	1203.224600	116.675632	-258.083830	1139.583002	253.155591	296.313060	944.506354	140.629147	-231.174555	936.106246	403.408789
